<mxfile host="app.diagrams.net" agent="Mozilla/5.0 (Windows NT 10.0; Win64; x64) AppleWebKit/537.36 (KHTML, like Gecko) Chrome/116.0.0.0 Safari/537.36" version="24.7.16">
  <diagram name="第 1 页" id="R42Pq4_11sQYMbeTWtZr">
    <mxGraphModel dx="1782" dy="485" grid="1" gridSize="10" guides="1" tooltips="1" connect="1" arrows="1" fold="1" page="1" pageScale="1" pageWidth="827" pageHeight="1169" math="0" shadow="0">
      <root>
        <mxCell id="0" />
        <mxCell id="1" parent="0" />
        <mxCell id="soX6ATtbK1rWT_qVsWqm-25" style="edgeStyle=orthogonalEdgeStyle;rounded=0;orthogonalLoop=1;jettySize=auto;html=1;exitX=0.5;exitY=1;exitDx=0;exitDy=0;entryX=0.5;entryY=0;entryDx=0;entryDy=0;curved=1;fontFamily=Times New Roman;fontSize=13;" edge="1" parent="1" source="soX6ATtbK1rWT_qVsWqm-1" target="soX6ATtbK1rWT_qVsWqm-22">
          <mxGeometry relative="1" as="geometry">
            <Array as="points">
              <mxPoint x="446" y="880" />
              <mxPoint x="351" y="880" />
            </Array>
          </mxGeometry>
        </mxCell>
        <mxCell id="soX6ATtbK1rWT_qVsWqm-38" value="&lt;span style=&quot;font-size: 13px;&quot;&gt;create/write/delete&lt;/span&gt;" style="edgeLabel;html=1;align=center;verticalAlign=middle;resizable=0;points=[];fontFamily=Times New Roman;fontSize=13;" vertex="1" connectable="0" parent="soX6ATtbK1rWT_qVsWqm-25">
          <mxGeometry x="0.6173" y="3" relative="1" as="geometry">
            <mxPoint x="19" y="16" as="offset" />
          </mxGeometry>
        </mxCell>
        <mxCell id="soX6ATtbK1rWT_qVsWqm-30" style="edgeStyle=orthogonalEdgeStyle;rounded=0;orthogonalLoop=1;jettySize=auto;html=1;exitX=0.5;exitY=1;exitDx=0;exitDy=0;entryX=0.5;entryY=0;entryDx=0;entryDy=0;curved=1;fontFamily=Times New Roman;fontSize=13;" edge="1" parent="1" source="soX6ATtbK1rWT_qVsWqm-1" target="soX6ATtbK1rWT_qVsWqm-29">
          <mxGeometry relative="1" as="geometry" />
        </mxCell>
        <mxCell id="soX6ATtbK1rWT_qVsWqm-31" value="&lt;span style=&quot;font-size: 13px;&quot;&gt;clone&lt;/span&gt;" style="edgeLabel;html=1;align=center;verticalAlign=middle;resizable=0;points=[];fontFamily=Times New Roman;fontSize=13;" vertex="1" connectable="0" parent="soX6ATtbK1rWT_qVsWqm-30">
          <mxGeometry x="0.252" relative="1" as="geometry">
            <mxPoint x="-33" y="10" as="offset" />
          </mxGeometry>
        </mxCell>
        <mxCell id="soX6ATtbK1rWT_qVsWqm-48" style="edgeStyle=orthogonalEdgeStyle;rounded=0;orthogonalLoop=1;jettySize=auto;html=1;exitX=0.5;exitY=1;exitDx=0;exitDy=0;curved=1;fontFamily=Times New Roman;fontSize=13;startArrow=classic;startFill=1;endArrow=none;endFill=0;" edge="1" parent="1" source="soX6ATtbK1rWT_qVsWqm-1" target="soX6ATtbK1rWT_qVsWqm-47">
          <mxGeometry relative="1" as="geometry" />
        </mxCell>
        <mxCell id="soX6ATtbK1rWT_qVsWqm-50" value="read" style="edgeLabel;html=1;align=center;verticalAlign=middle;resizable=0;points=[];fontFamily=Times New Roman;fontSize=13;" vertex="1" connectable="0" parent="soX6ATtbK1rWT_qVsWqm-48">
          <mxGeometry x="0.5458" y="9" relative="1" as="geometry">
            <mxPoint x="13" y="11" as="offset" />
          </mxGeometry>
        </mxCell>
        <mxCell id="soX6ATtbK1rWT_qVsWqm-52" style="edgeStyle=orthogonalEdgeStyle;rounded=0;orthogonalLoop=1;jettySize=auto;html=1;exitX=0.5;exitY=1;exitDx=0;exitDy=0;entryX=0.5;entryY=0;entryDx=0;entryDy=0;curved=1;fontFamily=Times New Roman;fontSize=13;startArrow=classic;startFill=1;endArrow=none;endFill=0;" edge="1" parent="1" source="soX6ATtbK1rWT_qVsWqm-1" target="soX6ATtbK1rWT_qVsWqm-51">
          <mxGeometry relative="1" as="geometry" />
        </mxCell>
        <mxCell id="soX6ATtbK1rWT_qVsWqm-57" value="read" style="edgeLabel;html=1;align=center;verticalAlign=middle;resizable=0;points=[];fontFamily=Times New Roman;fontSize=13;" vertex="1" connectable="0" parent="soX6ATtbK1rWT_qVsWqm-52">
          <mxGeometry x="0.8941" y="22" relative="1" as="geometry">
            <mxPoint x="-2" y="5" as="offset" />
          </mxGeometry>
        </mxCell>
        <mxCell id="soX6ATtbK1rWT_qVsWqm-55" style="edgeStyle=orthogonalEdgeStyle;rounded=0;orthogonalLoop=1;jettySize=auto;html=1;exitX=0.5;exitY=1;exitDx=0;exitDy=0;curved=1;fontFamily=Times New Roman;fontSize=13;startArrow=classic;startFill=1;endArrow=none;endFill=0;" edge="1" parent="1" source="soX6ATtbK1rWT_qVsWqm-1" target="soX6ATtbK1rWT_qVsWqm-54">
          <mxGeometry relative="1" as="geometry" />
        </mxCell>
        <mxCell id="soX6ATtbK1rWT_qVsWqm-58" value="read" style="edgeLabel;html=1;align=center;verticalAlign=middle;resizable=0;points=[];fontFamily=Times New Roman;fontSize=13;" vertex="1" connectable="0" parent="soX6ATtbK1rWT_qVsWqm-55">
          <mxGeometry x="0.7253" y="24" relative="1" as="geometry">
            <mxPoint x="7" y="-8" as="offset" />
          </mxGeometry>
        </mxCell>
        <mxCell id="soX6ATtbK1rWT_qVsWqm-66" style="edgeStyle=orthogonalEdgeStyle;rounded=0;orthogonalLoop=1;jettySize=auto;html=1;exitX=0.5;exitY=1;exitDx=0;exitDy=0;entryX=0.5;entryY=0;entryDx=0;entryDy=0;curved=1;fontFamily=Times New Roman;fontSize=13;startArrow=classic;startFill=1;endArrow=none;endFill=0;" edge="1" parent="1" source="soX6ATtbK1rWT_qVsWqm-1" target="soX6ATtbK1rWT_qVsWqm-65">
          <mxGeometry relative="1" as="geometry" />
        </mxCell>
        <mxCell id="soX6ATtbK1rWT_qVsWqm-75" value="&lt;span style=&quot;font-size: 13px; background-color: rgb(251, 251, 251);&quot;&gt;read&lt;/span&gt;" style="edgeLabel;html=1;align=center;verticalAlign=middle;resizable=0;points=[];fontSize=13;fontFamily=Times New Roman;" vertex="1" connectable="0" parent="soX6ATtbK1rWT_qVsWqm-66">
          <mxGeometry x="0.949" y="11" relative="1" as="geometry">
            <mxPoint x="24" y="-4" as="offset" />
          </mxGeometry>
        </mxCell>
        <mxCell id="soX6ATtbK1rWT_qVsWqm-76" style="edgeStyle=orthogonalEdgeStyle;rounded=0;orthogonalLoop=1;jettySize=auto;html=1;exitX=0.5;exitY=1;exitDx=0;exitDy=0;entryX=0.5;entryY=0;entryDx=0;entryDy=0;curved=1;fontSize=13;fontFamily=Times New Roman;startArrow=classic;startFill=1;endArrow=none;endFill=0;" edge="1" parent="1" source="soX6ATtbK1rWT_qVsWqm-1" target="soX6ATtbK1rWT_qVsWqm-74">
          <mxGeometry relative="1" as="geometry" />
        </mxCell>
        <mxCell id="soX6ATtbK1rWT_qVsWqm-77" value="&lt;font style=&quot;font-size: 13px;&quot;&gt;read&lt;/font&gt;" style="edgeLabel;html=1;align=center;verticalAlign=middle;resizable=0;points=[];fontSize=13;fontFamily=Times New Roman;" vertex="1" connectable="0" parent="soX6ATtbK1rWT_qVsWqm-76">
          <mxGeometry x="0.9337" y="1" relative="1" as="geometry">
            <mxPoint x="34" y="2" as="offset" />
          </mxGeometry>
        </mxCell>
        <mxCell id="soX6ATtbK1rWT_qVsWqm-80" style="edgeStyle=orthogonalEdgeStyle;rounded=0;orthogonalLoop=1;jettySize=auto;html=1;exitX=0.5;exitY=1;exitDx=0;exitDy=0;curved=1;fontFamily=Times New Roman;fontSize=13;" edge="1" parent="1" source="soX6ATtbK1rWT_qVsWqm-1" target="soX6ATtbK1rWT_qVsWqm-21">
          <mxGeometry relative="1" as="geometry">
            <Array as="points">
              <mxPoint x="446" y="880" />
              <mxPoint x="256" y="880" />
            </Array>
          </mxGeometry>
        </mxCell>
        <mxCell id="soX6ATtbK1rWT_qVsWqm-108" value="&lt;span style=&quot;font-family: &amp;quot;Times New Roman&amp;quot;; font-size: 13px;&quot;&gt;create/write/delete&lt;/span&gt;" style="edgeLabel;html=1;align=center;verticalAlign=middle;resizable=0;points=[];" vertex="1" connectable="0" parent="soX6ATtbK1rWT_qVsWqm-80">
          <mxGeometry x="0.8709" y="6" relative="1" as="geometry">
            <mxPoint x="15" y="1" as="offset" />
          </mxGeometry>
        </mxCell>
        <mxCell id="soX6ATtbK1rWT_qVsWqm-81" style="edgeStyle=orthogonalEdgeStyle;rounded=0;orthogonalLoop=1;jettySize=auto;html=1;exitX=0.5;exitY=1;exitDx=0;exitDy=0;entryX=0.5;entryY=0;entryDx=0;entryDy=0;curved=1;fontFamily=Times New Roman;fontSize=13;" edge="1" parent="1" source="soX6ATtbK1rWT_qVsWqm-1" target="soX6ATtbK1rWT_qVsWqm-2">
          <mxGeometry relative="1" as="geometry">
            <Array as="points">
              <mxPoint x="446" y="880" />
              <mxPoint x="162" y="880" />
            </Array>
          </mxGeometry>
        </mxCell>
        <mxCell id="soX6ATtbK1rWT_qVsWqm-107" value="&lt;span style=&quot;font-family: &amp;quot;Times New Roman&amp;quot;; font-size: 13px;&quot;&gt;create/write/delete&lt;/span&gt;" style="edgeLabel;html=1;align=center;verticalAlign=middle;resizable=0;points=[];" vertex="1" connectable="0" parent="soX6ATtbK1rWT_qVsWqm-81">
          <mxGeometry x="0.9024" y="14" relative="1" as="geometry">
            <mxPoint x="-2" as="offset" />
          </mxGeometry>
        </mxCell>
        <mxCell id="soX6ATtbK1rWT_qVsWqm-82" style="edgeStyle=orthogonalEdgeStyle;rounded=0;orthogonalLoop=1;jettySize=auto;html=1;exitX=0.5;exitY=1;exitDx=0;exitDy=0;entryX=0.5;entryY=0;entryDx=0;entryDy=0;curved=1;fontFamily=Times New Roman;fontSize=13;" edge="1" parent="1" source="soX6ATtbK1rWT_qVsWqm-1" target="soX6ATtbK1rWT_qVsWqm-26">
          <mxGeometry relative="1" as="geometry">
            <Array as="points">
              <mxPoint x="446" y="880" />
              <mxPoint x="77" y="880" />
            </Array>
          </mxGeometry>
        </mxCell>
        <mxCell id="soX6ATtbK1rWT_qVsWqm-89" value="&lt;font style=&quot;font-size: 13px;&quot;&gt;create&lt;/font&gt;" style="edgeLabel;html=1;align=center;verticalAlign=middle;resizable=0;points=[];fontFamily=Times New Roman;fontSize=13;" vertex="1" connectable="0" parent="soX6ATtbK1rWT_qVsWqm-82">
          <mxGeometry x="0.9201" y="19" relative="1" as="geometry">
            <mxPoint as="offset" />
          </mxGeometry>
        </mxCell>
        <mxCell id="soX6ATtbK1rWT_qVsWqm-90" style="edgeStyle=orthogonalEdgeStyle;rounded=0;orthogonalLoop=1;jettySize=auto;html=1;exitX=0.5;exitY=1;exitDx=0;exitDy=0;entryX=0;entryY=0.5;entryDx=0;entryDy=0;curved=1;" edge="1" parent="1" source="soX6ATtbK1rWT_qVsWqm-1" target="soX6ATtbK1rWT_qVsWqm-87">
          <mxGeometry relative="1" as="geometry" />
        </mxCell>
        <mxCell id="soX6ATtbK1rWT_qVsWqm-114" value="&lt;span style=&quot;font-family: &amp;quot;Times New Roman&amp;quot;; font-size: 13px;&quot;&gt;connect&lt;/span&gt;" style="edgeLabel;html=1;align=center;verticalAlign=middle;resizable=0;points=[];" vertex="1" connectable="0" parent="soX6ATtbK1rWT_qVsWqm-90">
          <mxGeometry x="0.8077" y="-8" relative="1" as="geometry">
            <mxPoint x="30" y="21" as="offset" />
          </mxGeometry>
        </mxCell>
        <mxCell id="soX6ATtbK1rWT_qVsWqm-91" style="edgeStyle=orthogonalEdgeStyle;rounded=0;orthogonalLoop=1;jettySize=auto;html=1;exitX=0.5;exitY=1;exitDx=0;exitDy=0;entryX=0;entryY=0.5;entryDx=0;entryDy=0;curved=1;" edge="1" parent="1" source="soX6ATtbK1rWT_qVsWqm-1" target="soX6ATtbK1rWT_qVsWqm-88">
          <mxGeometry relative="1" as="geometry" />
        </mxCell>
        <mxCell id="soX6ATtbK1rWT_qVsWqm-113" value="&lt;span style=&quot;font-family: &amp;quot;Times New Roman&amp;quot;; font-size: 13px;&quot;&gt;connect&lt;/span&gt;" style="edgeLabel;html=1;align=center;verticalAlign=middle;resizable=0;points=[];" vertex="1" connectable="0" parent="soX6ATtbK1rWT_qVsWqm-91">
          <mxGeometry x="0.5612" y="-12" relative="1" as="geometry">
            <mxPoint x="31" y="1" as="offset" />
          </mxGeometry>
        </mxCell>
        <mxCell id="soX6ATtbK1rWT_qVsWqm-95" style="edgeStyle=orthogonalEdgeStyle;rounded=0;orthogonalLoop=1;jettySize=auto;html=1;exitX=0.5;exitY=1;exitDx=0;exitDy=0;entryX=0;entryY=0.5;entryDx=0;entryDy=0;curved=1;" edge="1" parent="1" source="soX6ATtbK1rWT_qVsWqm-1" target="soX6ATtbK1rWT_qVsWqm-94">
          <mxGeometry relative="1" as="geometry" />
        </mxCell>
        <mxCell id="soX6ATtbK1rWT_qVsWqm-112" value="&lt;span style=&quot;font-family: &amp;quot;Times New Roman&amp;quot;; font-size: 13px;&quot;&gt;connect&lt;/span&gt;" style="edgeLabel;html=1;align=center;verticalAlign=middle;resizable=0;points=[];" vertex="1" connectable="0" parent="soX6ATtbK1rWT_qVsWqm-95">
          <mxGeometry x="0.6634" y="-17" relative="1" as="geometry">
            <mxPoint x="40" as="offset" />
          </mxGeometry>
        </mxCell>
        <mxCell id="soX6ATtbK1rWT_qVsWqm-101" style="edgeStyle=orthogonalEdgeStyle;rounded=0;orthogonalLoop=1;jettySize=auto;html=1;exitX=0.5;exitY=1;exitDx=0;exitDy=0;entryX=0;entryY=0.5;entryDx=0;entryDy=0;curved=1;" edge="1" parent="1" source="soX6ATtbK1rWT_qVsWqm-1" target="soX6ATtbK1rWT_qVsWqm-100">
          <mxGeometry relative="1" as="geometry" />
        </mxCell>
        <mxCell id="soX6ATtbK1rWT_qVsWqm-115" value="&lt;span style=&quot;font-family: &amp;quot;Times New Roman&amp;quot;; font-size: 13px;&quot;&gt;connect&lt;/span&gt;" style="edgeLabel;html=1;align=center;verticalAlign=middle;resizable=0;points=[];" vertex="1" connectable="0" parent="soX6ATtbK1rWT_qVsWqm-101">
          <mxGeometry x="0.6839" y="-5" relative="1" as="geometry">
            <mxPoint x="23" y="19" as="offset" />
          </mxGeometry>
        </mxCell>
        <mxCell id="soX6ATtbK1rWT_qVsWqm-105" style="edgeStyle=orthogonalEdgeStyle;rounded=0;orthogonalLoop=1;jettySize=auto;html=1;exitX=0.5;exitY=1;exitDx=0;exitDy=0;entryX=0;entryY=0.5;entryDx=0;entryDy=0;curved=1;" edge="1" parent="1" source="soX6ATtbK1rWT_qVsWqm-1" target="soX6ATtbK1rWT_qVsWqm-103">
          <mxGeometry relative="1" as="geometry" />
        </mxCell>
        <mxCell id="soX6ATtbK1rWT_qVsWqm-111" value="&lt;span style=&quot;font-family: &amp;quot;Times New Roman&amp;quot;; font-size: 13px;&quot;&gt;connect&lt;/span&gt;" style="edgeLabel;html=1;align=center;verticalAlign=middle;resizable=0;points=[];" vertex="1" connectable="0" parent="soX6ATtbK1rWT_qVsWqm-105">
          <mxGeometry x="0.678" y="-20" relative="1" as="geometry">
            <mxPoint x="29" y="3" as="offset" />
          </mxGeometry>
        </mxCell>
        <mxCell id="soX6ATtbK1rWT_qVsWqm-106" style="edgeStyle=orthogonalEdgeStyle;rounded=0;orthogonalLoop=1;jettySize=auto;html=1;exitX=0.5;exitY=1;exitDx=0;exitDy=0;entryX=0;entryY=0.5;entryDx=0;entryDy=0;curved=1;" edge="1" parent="1" source="soX6ATtbK1rWT_qVsWqm-1" target="soX6ATtbK1rWT_qVsWqm-104">
          <mxGeometry relative="1" as="geometry" />
        </mxCell>
        <mxCell id="soX6ATtbK1rWT_qVsWqm-110" value="&lt;font style=&quot;font-size: 13px;&quot; face=&quot;Times New Roman&quot;&gt;connect&lt;/font&gt;" style="edgeLabel;html=1;align=center;verticalAlign=middle;resizable=0;points=[];" vertex="1" connectable="0" parent="soX6ATtbK1rWT_qVsWqm-106">
          <mxGeometry x="0.2376" y="-4" relative="1" as="geometry">
            <mxPoint x="50" y="-137" as="offset" />
          </mxGeometry>
        </mxCell>
        <mxCell id="soX6ATtbK1rWT_qVsWqm-1" value="&lt;font style=&quot;font-size: 13px;&quot;&gt;/home/student/A2&lt;br style=&quot;font-size: 13px;&quot;&gt;&lt;span style=&quot;background-color: initial; font-size: 13px;&quot;&gt;/PartB/&lt;/span&gt;malicious_prog&lt;/font&gt;" style="rounded=0;whiteSpace=wrap;html=1;fontFamily=Times New Roman;fontSize=13;" vertex="1" parent="1">
          <mxGeometry x="370" y="720" width="150" height="40" as="geometry" />
        </mxCell>
        <mxCell id="soX6ATtbK1rWT_qVsWqm-2" value="&lt;font style=&quot;font-size: 13px;&quot;&gt;./outputs&lt;/font&gt;&lt;span style=&quot;background-color: initial; font-size: 13px;&quot;&gt;/test_01&lt;/span&gt;" style="ellipse;whiteSpace=wrap;html=1;fontFamily=Times New Roman;fontSize=13;" vertex="1" parent="1">
          <mxGeometry x="116.83" y="920" width="90" height="40" as="geometry" />
        </mxCell>
        <mxCell id="soX6ATtbK1rWT_qVsWqm-7" style="rounded=0;orthogonalLoop=1;jettySize=auto;html=1;exitX=0.5;exitY=1;exitDx=0;exitDy=0;entryX=0.5;entryY=0;entryDx=0;entryDy=0;edgeStyle=orthogonalEdgeStyle;curved=1;fontFamily=Times New Roman;fontSize=13;" edge="1" parent="1" source="soX6ATtbK1rWT_qVsWqm-4" target="soX6ATtbK1rWT_qVsWqm-5">
          <mxGeometry relative="1" as="geometry" />
        </mxCell>
        <mxCell id="soX6ATtbK1rWT_qVsWqm-8" value="&lt;font style=&quot;font-size: 13px;&quot;&gt;execve&lt;/font&gt;" style="edgeLabel;html=1;align=center;verticalAlign=middle;resizable=0;points=[];fontFamily=Times New Roman;fontSize=13;" vertex="1" connectable="0" parent="soX6ATtbK1rWT_qVsWqm-7">
          <mxGeometry x="-0.1692" relative="1" as="geometry">
            <mxPoint x="-53" y="-6" as="offset" />
          </mxGeometry>
        </mxCell>
        <mxCell id="soX6ATtbK1rWT_qVsWqm-4" value="&lt;font style=&quot;font-size: 13px;&quot;&gt;/home/student/A2&lt;/font&gt;&lt;div style=&quot;font-size: 13px;&quot;&gt;&lt;font style=&quot;font-size: 13px;&quot;&gt;/PartA/exploits/exploit&lt;/font&gt;&lt;/div&gt;" style="rounded=0;whiteSpace=wrap;html=1;fontFamily=Times New Roman;fontSize=13;" vertex="1" parent="1">
          <mxGeometry x="380" y="510" width="130" height="40" as="geometry" />
        </mxCell>
        <mxCell id="soX6ATtbK1rWT_qVsWqm-5" value="&lt;font style=&quot;font-size: 13px;&quot;&gt;/tmp/cstarget&lt;/font&gt;" style="rounded=0;whiteSpace=wrap;html=1;fontFamily=Times New Roman;fontSize=13;" vertex="1" parent="1">
          <mxGeometry x="364" y="585" width="100" height="30" as="geometry" />
        </mxCell>
        <mxCell id="soX6ATtbK1rWT_qVsWqm-18" style="edgeStyle=orthogonalEdgeStyle;rounded=0;orthogonalLoop=1;jettySize=auto;html=1;exitX=0.5;exitY=1;exitDx=0;exitDy=0;entryX=0.5;entryY=0;entryDx=0;entryDy=0;curved=1;fontFamily=Times New Roman;fontSize=13;" edge="1" parent="1" source="soX6ATtbK1rWT_qVsWqm-5" target="soX6ATtbK1rWT_qVsWqm-15">
          <mxGeometry relative="1" as="geometry" />
        </mxCell>
        <mxCell id="soX6ATtbK1rWT_qVsWqm-84" value="&lt;font style=&quot;font-size: 13px;&quot;&gt;execve&lt;/font&gt;" style="edgeLabel;html=1;align=center;verticalAlign=middle;resizable=0;points=[];fontFamily=Times New Roman;fontSize=13;" vertex="1" connectable="0" parent="soX6ATtbK1rWT_qVsWqm-18">
          <mxGeometry x="-0.0633" y="-2" relative="1" as="geometry">
            <mxPoint x="-46" y="-3" as="offset" />
          </mxGeometry>
        </mxCell>
        <mxCell id="soX6ATtbK1rWT_qVsWqm-16" style="edgeStyle=orthogonalEdgeStyle;rounded=0;orthogonalLoop=1;jettySize=auto;html=1;exitX=0.5;exitY=1;exitDx=0;exitDy=0;entryX=0.5;entryY=0;entryDx=0;entryDy=0;curved=1;fontFamily=Times New Roman;fontSize=13;" edge="1" parent="1" source="soX6ATtbK1rWT_qVsWqm-15" target="soX6ATtbK1rWT_qVsWqm-1">
          <mxGeometry relative="1" as="geometry" />
        </mxCell>
        <mxCell id="soX6ATtbK1rWT_qVsWqm-17" value="&lt;font style=&quot;font-size: 13px;&quot;&gt;clone&lt;/font&gt;" style="edgeLabel;html=1;align=center;verticalAlign=middle;resizable=0;points=[];fontFamily=Times New Roman;fontSize=13;" vertex="1" connectable="0" parent="soX6ATtbK1rWT_qVsWqm-16">
          <mxGeometry x="-0.2533" y="-1" relative="1" as="geometry">
            <mxPoint x="-29" y="3" as="offset" />
          </mxGeometry>
        </mxCell>
        <mxCell id="soX6ATtbK1rWT_qVsWqm-15" value="/usr/bin/dash" style="rounded=0;whiteSpace=wrap;html=1;fontFamily=Times New Roman;fontSize=13;" vertex="1" parent="1">
          <mxGeometry x="320" y="650" width="100" height="30" as="geometry" />
        </mxCell>
        <mxCell id="soX6ATtbK1rWT_qVsWqm-21" value="&lt;font style=&quot;font-size: 13px;&quot;&gt;./outputs/test_02&lt;/font&gt;" style="ellipse;whiteSpace=wrap;html=1;fontFamily=Times New Roman;fontSize=13;" vertex="1" parent="1">
          <mxGeometry x="210.83" y="920" width="90" height="40" as="geometry" />
        </mxCell>
        <mxCell id="soX6ATtbK1rWT_qVsWqm-22" value="&lt;font style=&quot;font-size: 13px;&quot;&gt;./outputs/test_03&lt;/font&gt;" style="ellipse;whiteSpace=wrap;html=1;fontFamily=Times New Roman;fontSize=13;" vertex="1" parent="1">
          <mxGeometry x="305.83" y="920" width="90" height="40" as="geometry" />
        </mxCell>
        <mxCell id="soX6ATtbK1rWT_qVsWqm-26" value="&lt;font style=&quot;font-size: 13px;&quot;&gt;./outputs&lt;/font&gt;" style="ellipse;whiteSpace=wrap;html=1;fontFamily=Times New Roman;fontSize=13;" vertex="1" parent="1">
          <mxGeometry x="41.83" y="920" width="70" height="40" as="geometry" />
        </mxCell>
        <mxCell id="soX6ATtbK1rWT_qVsWqm-40" style="edgeStyle=orthogonalEdgeStyle;rounded=0;orthogonalLoop=1;jettySize=auto;html=1;exitX=0.5;exitY=1;exitDx=0;exitDy=0;entryX=0.5;entryY=0;entryDx=0;entryDy=0;curved=1;fontFamily=Times New Roman;fontSize=13;" edge="1" parent="1" source="soX6ATtbK1rWT_qVsWqm-29" target="soX6ATtbK1rWT_qVsWqm-39">
          <mxGeometry relative="1" as="geometry" />
        </mxCell>
        <mxCell id="soX6ATtbK1rWT_qVsWqm-41" value="&lt;font style=&quot;font-size: 13px;&quot;&gt;clone&lt;/font&gt;" style="edgeLabel;html=1;align=center;verticalAlign=middle;resizable=0;points=[];fontFamily=Times New Roman;fontSize=13;" vertex="1" connectable="0" parent="soX6ATtbK1rWT_qVsWqm-40">
          <mxGeometry x="0.2903" relative="1" as="geometry">
            <mxPoint x="10" y="20" as="offset" />
          </mxGeometry>
        </mxCell>
        <mxCell id="soX6ATtbK1rWT_qVsWqm-44" style="edgeStyle=orthogonalEdgeStyle;rounded=0;orthogonalLoop=1;jettySize=auto;html=1;exitX=0.5;exitY=1;exitDx=0;exitDy=0;entryX=0.5;entryY=0;entryDx=0;entryDy=0;curved=1;fontFamily=Times New Roman;fontSize=13;" edge="1" parent="1" source="soX6ATtbK1rWT_qVsWqm-29" target="soX6ATtbK1rWT_qVsWqm-43">
          <mxGeometry relative="1" as="geometry" />
        </mxCell>
        <mxCell id="soX6ATtbK1rWT_qVsWqm-59" value="clone" style="edgeLabel;html=1;align=center;verticalAlign=middle;resizable=0;points=[];fontFamily=Times New Roman;fontSize=13;" vertex="1" connectable="0" parent="soX6ATtbK1rWT_qVsWqm-44">
          <mxGeometry x="-0.1467" y="-2" relative="1" as="geometry">
            <mxPoint x="-2" y="22" as="offset" />
          </mxGeometry>
        </mxCell>
        <mxCell id="soX6ATtbK1rWT_qVsWqm-60" style="edgeStyle=orthogonalEdgeStyle;rounded=0;orthogonalLoop=1;jettySize=auto;html=1;exitX=0.5;exitY=1;exitDx=0;exitDy=0;entryX=0.5;entryY=0;entryDx=0;entryDy=0;curved=1;fontFamily=Times New Roman;fontSize=13;" edge="1" parent="1" source="soX6ATtbK1rWT_qVsWqm-29" target="soX6ATtbK1rWT_qVsWqm-45">
          <mxGeometry relative="1" as="geometry" />
        </mxCell>
        <mxCell id="soX6ATtbK1rWT_qVsWqm-61" value="clone" style="edgeLabel;html=1;align=center;verticalAlign=middle;resizable=0;points=[];fontFamily=Times New Roman;fontSize=13;" vertex="1" connectable="0" parent="soX6ATtbK1rWT_qVsWqm-60">
          <mxGeometry x="0.2252" y="1" relative="1" as="geometry">
            <mxPoint x="38" y="21" as="offset" />
          </mxGeometry>
        </mxCell>
        <mxCell id="soX6ATtbK1rWT_qVsWqm-63" style="edgeStyle=orthogonalEdgeStyle;rounded=0;orthogonalLoop=1;jettySize=auto;html=1;exitX=0.5;exitY=1;exitDx=0;exitDy=0;entryX=0.5;entryY=0;entryDx=0;entryDy=0;curved=1;fontFamily=Times New Roman;fontSize=13;" edge="1" parent="1" source="soX6ATtbK1rWT_qVsWqm-29" target="soX6ATtbK1rWT_qVsWqm-62">
          <mxGeometry relative="1" as="geometry" />
        </mxCell>
        <mxCell id="soX6ATtbK1rWT_qVsWqm-68" value="clone" style="edgeLabel;html=1;align=center;verticalAlign=middle;resizable=0;points=[];fontFamily=Times New Roman;fontSize=13;" vertex="1" connectable="0" parent="soX6ATtbK1rWT_qVsWqm-63">
          <mxGeometry x="0.2098" y="3" relative="1" as="geometry">
            <mxPoint x="75" y="23" as="offset" />
          </mxGeometry>
        </mxCell>
        <mxCell id="soX6ATtbK1rWT_qVsWqm-69" style="edgeStyle=orthogonalEdgeStyle;rounded=0;orthogonalLoop=1;jettySize=auto;html=1;exitX=0.5;exitY=1;exitDx=0;exitDy=0;entryX=0.5;entryY=0;entryDx=0;entryDy=0;curved=1;fontFamily=Times New Roman;fontSize=13;" edge="1" parent="1" source="soX6ATtbK1rWT_qVsWqm-29" target="soX6ATtbK1rWT_qVsWqm-64">
          <mxGeometry relative="1" as="geometry" />
        </mxCell>
        <mxCell id="soX6ATtbK1rWT_qVsWqm-70" value="clone" style="edgeLabel;html=1;align=center;verticalAlign=middle;resizable=0;points=[];fontFamily=Times New Roman;fontSize=13;" vertex="1" connectable="0" parent="soX6ATtbK1rWT_qVsWqm-69">
          <mxGeometry x="0.3911" y="1" relative="1" as="geometry">
            <mxPoint x="81" y="21" as="offset" />
          </mxGeometry>
        </mxCell>
        <mxCell id="soX6ATtbK1rWT_qVsWqm-29" value="&lt;font style=&quot;font-size: 13px;&quot;&gt;/usr/bin/dash&lt;/font&gt;" style="rounded=0;whiteSpace=wrap;html=1;fontFamily=Times New Roman;fontSize=13;" vertex="1" parent="1">
          <mxGeometry x="560" y="805" width="80" height="30" as="geometry" />
        </mxCell>
        <mxCell id="soX6ATtbK1rWT_qVsWqm-39" value="&lt;font style=&quot;font-size: 13px;&quot;&gt;/usr/bin/dmesg&lt;/font&gt;" style="rounded=0;whiteSpace=wrap;html=1;fontFamily=Times New Roman;fontSize=13;" vertex="1" parent="1">
          <mxGeometry x="425" y="926" width="80" height="30" as="geometry" />
        </mxCell>
        <mxCell id="soX6ATtbK1rWT_qVsWqm-43" value="&lt;font style=&quot;font-size: 13px;&quot;&gt;/usr/bin/date&lt;/font&gt;" style="rounded=0;whiteSpace=wrap;html=1;fontFamily=Times New Roman;fontSize=13;" vertex="1" parent="1">
          <mxGeometry x="512" y="926" width="70" height="30" as="geometry" />
        </mxCell>
        <mxCell id="soX6ATtbK1rWT_qVsWqm-45" value="&lt;font style=&quot;font-size: 13px;&quot;&gt;/usr/bin/ls&lt;/font&gt;" style="rounded=0;whiteSpace=wrap;html=1;fontFamily=Times New Roman;fontSize=13;" vertex="1" parent="1">
          <mxGeometry x="589" y="926" width="80" height="30" as="geometry" />
        </mxCell>
        <mxCell id="soX6ATtbK1rWT_qVsWqm-47" value="&lt;p class=&quot;MsoNormal&quot; style=&quot;font-size: 13px;&quot;&gt;&lt;span style=&quot;font-size: 13px;&quot;&gt;/etc/resolv.conf&lt;/span&gt;&lt;/p&gt;" style="ellipse;whiteSpace=wrap;html=1;fontFamily=Times New Roman;fontSize=13;" vertex="1" parent="1">
          <mxGeometry x="282" y="819.18" width="90" height="40" as="geometry" />
        </mxCell>
        <mxCell id="soX6ATtbK1rWT_qVsWqm-51" value="&lt;p class=&quot;MsoNormal&quot; style=&quot;font-size: 13px;&quot;&gt;&lt;span style=&quot;font-size: 13px;&quot;&gt;&lt;font style=&quot;font-size: 13px;&quot;&gt;/etc/profile&lt;/font&gt;&lt;/span&gt;&lt;/p&gt;" style="ellipse;whiteSpace=wrap;html=1;fontFamily=Times New Roman;fontSize=13;" vertex="1" parent="1">
          <mxGeometry x="207" y="819.18" width="70" height="40" as="geometry" />
        </mxCell>
        <mxCell id="soX6ATtbK1rWT_qVsWqm-54" value="&lt;p class=&quot;MsoNormal&quot; style=&quot;font-size: 13px;&quot;&gt;&lt;font style=&quot;font-size: 13px;&quot;&gt;&lt;span style=&quot;text-align: left; font-size: 13px;&quot;&gt;/home/student/&lt;br style=&quot;font-size: 13px;&quot;&gt;&lt;/span&gt;&lt;/font&gt;&lt;span style=&quot;background-color: initial; text-align: left; font-size: 13px;&quot;&gt;.bash_history&lt;/span&gt;&lt;/p&gt;" style="ellipse;whiteSpace=wrap;html=1;fontFamily=Times New Roman;fontSize=13;" vertex="1" parent="1">
          <mxGeometry x="-88" y="819.18" width="110" height="40" as="geometry" />
        </mxCell>
        <mxCell id="soX6ATtbK1rWT_qVsWqm-62" value="&lt;font style=&quot;font-size: 13px;&quot;&gt;/usr/bin/ps&lt;/font&gt;" style="rounded=0;whiteSpace=wrap;html=1;fontFamily=Times New Roman;fontSize=13;" vertex="1" parent="1">
          <mxGeometry x="675" y="926" width="80" height="30" as="geometry" />
        </mxCell>
        <mxCell id="soX6ATtbK1rWT_qVsWqm-64" value="&lt;font style=&quot;font-size: 13px;&quot;&gt;/usr/bin/whoami&lt;/font&gt;" style="rounded=0;whiteSpace=wrap;html=1;fontFamily=Times New Roman;fontSize=13;" vertex="1" parent="1">
          <mxGeometry x="762" y="926" width="90" height="30" as="geometry" />
        </mxCell>
        <mxCell id="soX6ATtbK1rWT_qVsWqm-65" value="&lt;p class=&quot;MsoNormal&quot; style=&quot;font-size: 13px;&quot;&gt;&lt;span style=&quot;font-size: 13px;&quot;&gt;&lt;font style=&quot;font-size: 13px;&quot;&gt;/etc/passwd&lt;/font&gt;&lt;/span&gt;&lt;/p&gt;" style="ellipse;whiteSpace=wrap;html=1;fontFamily=Times New Roman;fontSize=13;" vertex="1" parent="1">
          <mxGeometry x="132" y="819.18" width="70" height="40" as="geometry" />
        </mxCell>
        <mxCell id="soX6ATtbK1rWT_qVsWqm-74" value="&lt;p class=&quot;MsoNormal&quot; style=&quot;font-size: 13px;&quot;&gt;&lt;span style=&quot;text-align: left; font-size: 13px;&quot;&gt;&lt;font style=&quot;font-size: 13px;&quot;&gt;/etc/nsswitch.conf&lt;/font&gt;&lt;/span&gt;&lt;br style=&quot;font-size: 13px;&quot;&gt;&lt;/p&gt;" style="ellipse;whiteSpace=wrap;html=1;fontFamily=Times New Roman;fontSize=13;" vertex="1" parent="1">
          <mxGeometry x="27" y="819.18" width="100" height="40" as="geometry" />
        </mxCell>
        <mxCell id="soX6ATtbK1rWT_qVsWqm-87" value="172.67.75.39:443&lt;br&gt;&lt;div style=&quot;font-size: 13px;&quot;&gt;&lt;font style=&quot;font-size: 13px;&quot;&gt;(www.wireshark.org)&lt;/font&gt;&lt;/div&gt;" style="rhombus;whiteSpace=wrap;html=1;fontFamily=Times New Roman;fontSize=13;" vertex="1" parent="1">
          <mxGeometry x="620" y="626" width="170" height="70" as="geometry" />
        </mxCell>
        <mxCell id="soX6ATtbK1rWT_qVsWqm-88" value="10.0.2.15:59596" style="rhombus;whiteSpace=wrap;html=1;fontFamily=Times New Roman;fontSize=13;" vertex="1" parent="1">
          <mxGeometry x="645" y="566" width="120" height="55" as="geometry" />
        </mxCell>
        <mxCell id="soX6ATtbK1rWT_qVsWqm-94" value="&lt;div style=&quot;&quot;&gt;&lt;font style=&quot;&quot;&gt;194.150.169.131:80&lt;br&gt;&lt;/font&gt;&lt;/div&gt;&lt;div style=&quot;font-size: 13px;&quot;&gt;&lt;font style=&quot;font-size: 13px;&quot;&gt;(www.phrack.org)&lt;/font&gt;&lt;/div&gt;" style="rhombus;whiteSpace=wrap;html=1;fontFamily=Times New Roman;fontSize=13;" vertex="1" parent="1">
          <mxGeometry x="620" y="501" width="170" height="60" as="geometry" />
        </mxCell>
        <mxCell id="soX6ATtbK1rWT_qVsWqm-96" style="edgeStyle=orthogonalEdgeStyle;rounded=0;orthogonalLoop=1;jettySize=auto;html=1;exitX=0;exitY=0.25;exitDx=0;exitDy=0;curved=1;entryX=0;entryY=0.75;entryDx=0;entryDy=0;" edge="1" parent="1" source="soX6ATtbK1rWT_qVsWqm-1" target="soX6ATtbK1rWT_qVsWqm-1">
          <mxGeometry relative="1" as="geometry">
            <mxPoint x="370" y="760" as="targetPoint" />
            <Array as="points">
              <mxPoint x="350" y="730" />
              <mxPoint x="350" y="750" />
            </Array>
          </mxGeometry>
        </mxCell>
        <mxCell id="soX6ATtbK1rWT_qVsWqm-99" value="&lt;font style=&quot;font-size: 13px;&quot; face=&quot;Times New Roman&quot;&gt;clone&lt;/font&gt;" style="edgeLabel;html=1;align=center;verticalAlign=middle;resizable=0;points=[];" vertex="1" connectable="0" parent="soX6ATtbK1rWT_qVsWqm-96">
          <mxGeometry x="-0.0322" relative="1" as="geometry">
            <mxPoint x="-23" y="1" as="offset" />
          </mxGeometry>
        </mxCell>
        <mxCell id="soX6ATtbK1rWT_qVsWqm-100" value="10.0.2.15:57994" style="rhombus;whiteSpace=wrap;html=1;fontFamily=Times New Roman;fontSize=13;" vertex="1" parent="1">
          <mxGeometry x="640" y="699" width="130" height="55" as="geometry" />
        </mxCell>
        <mxCell id="soX6ATtbK1rWT_qVsWqm-103" value="10.0.2.15:54483" style="rhombus;whiteSpace=wrap;html=1;fontFamily=Times New Roman;fontSize=13;" vertex="1" parent="1">
          <mxGeometry x="640" y="442" width="130" height="55" as="geometry" />
        </mxCell>
        <mxCell id="soX6ATtbK1rWT_qVsWqm-104" value="8.8.8.8:53" style="rhombus;whiteSpace=wrap;html=1;fontFamily=Times New Roman;fontSize=13;" vertex="1" parent="1">
          <mxGeometry x="630" y="382" width="150" height="55" as="geometry" />
        </mxCell>
      </root>
    </mxGraphModel>
  </diagram>
</mxfile>
